<?xml version="1.0" encoding="utf-8"?>
<!-- Generated by IcoMoon.io -->
<!DOCTYPE svg PUBLIC "-//W3C//DTD SVG 1.1//EN" "http://www.w3.org/Graphics/SVG/1.1/DTD/svg11.dtd">
<svg version="1.1" xmlns="http://www.w3.org/2000/svg" xmlns:xlink="http://www.w3.org/1999/xlink" width="33" height="32" viewBox="0 0 33 32">
<path fill="#444444" d="M7.226 3.613c0 1.995-1.618 3.613-3.613 3.613s-3.613-1.618-3.613-3.613c0-1.995 1.618-3.613 3.613-3.613s3.613 1.618 3.613 3.613z"></path>
<path fill="#444444" d="M19.613 3.613c0 1.995-1.618 3.613-3.613 3.613s-3.613-1.618-3.613-3.613c0-1.995 1.618-3.613 3.613-3.613s3.613 1.618 3.613 3.613z"></path>
<path fill="#444444" d="M33.032 3.613c0 1.995-1.618 3.613-3.613 3.613s-3.613-1.618-3.613-3.613c0-1.995 1.618-3.613 3.613-3.613s3.613 1.618 3.613 3.613z"></path>
<path fill="#444444" d="M19.613 16c0 1.995-1.618 3.613-3.613 3.613s-3.613-1.618-3.613-3.613c0-1.995 1.618-3.613 3.613-3.613s3.613 1.618 3.613 3.613z"></path>
<path fill="#444444" d="M7.226 16c0 1.995-1.618 3.613-3.613 3.613s-3.613-1.618-3.613-3.613c0-1.995 1.618-3.613 3.613-3.613s3.613 1.618 3.613 3.613z"></path>
<path fill="#444444" d="M7.226 28.387c0 1.995-1.618 3.613-3.613 3.613s-3.613-1.618-3.613-3.613c0-1.995 1.618-3.613 3.613-3.613s3.613 1.618 3.613 3.613z"></path>
</svg>
